<mxfile host="app.diagrams.net" agent="Mozilla/5.0 (Windows NT 10.0; Win64; x64) AppleWebKit/537.36 (KHTML, like Gecko) Chrome/121.0.0.0 Safari/537.36 Edg/121.0.0.0" version="26.2.5">
  <diagram name="第 1 页" id="fsZPGQLROvwWvlIkThc0">
    <mxGraphModel dx="1420" dy="798" grid="1" gridSize="10" guides="1" tooltips="1" connect="1" arrows="1" fold="1" page="1" pageScale="1" pageWidth="827" pageHeight="1169" math="0" shadow="0">
      <root>
        <mxCell id="0" />
        <mxCell id="1" parent="0" />
        <mxCell id="JJxZF2KsEsP3yiUepQ41-1" value="" style="edgeStyle=orthogonalEdgeStyle;rounded=0;orthogonalLoop=1;jettySize=auto;html=1;entryX=1;entryY=0.5;entryDx=0;entryDy=0;entryPerimeter=0;" edge="1" parent="1" source="JJxZF2KsEsP3yiUepQ41-5" target="JJxZF2KsEsP3yiUepQ41-21">
          <mxGeometry relative="1" as="geometry">
            <mxPoint x="691" y="1080" as="targetPoint" />
            <Array as="points">
              <mxPoint x="701" y="307" />
              <mxPoint x="701" y="994" />
            </Array>
          </mxGeometry>
        </mxCell>
        <mxCell id="JJxZF2KsEsP3yiUepQ41-2" value="否" style="edgeLabel;html=1;align=center;verticalAlign=middle;resizable=0;points=[];" vertex="1" connectable="0" parent="JJxZF2KsEsP3yiUepQ41-1">
          <mxGeometry x="-0.3877" relative="1" as="geometry">
            <mxPoint as="offset" />
          </mxGeometry>
        </mxCell>
        <mxCell id="JJxZF2KsEsP3yiUepQ41-3" value="" style="edgeStyle=orthogonalEdgeStyle;rounded=0;orthogonalLoop=1;jettySize=auto;html=1;entryX=0.5;entryY=0;entryDx=0;entryDy=0;" edge="1" parent="1" source="JJxZF2KsEsP3yiUepQ41-5" target="JJxZF2KsEsP3yiUepQ41-13">
          <mxGeometry relative="1" as="geometry">
            <mxPoint x="384" y="413.5" as="targetPoint" />
          </mxGeometry>
        </mxCell>
        <mxCell id="JJxZF2KsEsP3yiUepQ41-4" value="是" style="edgeLabel;html=1;align=center;verticalAlign=middle;resizable=0;points=[];" vertex="1" connectable="0" parent="JJxZF2KsEsP3yiUepQ41-3">
          <mxGeometry x="-0.1655" relative="1" as="geometry">
            <mxPoint as="offset" />
          </mxGeometry>
        </mxCell>
        <mxCell id="JJxZF2KsEsP3yiUepQ41-5" value="字段数量&amp;gt;2" style="rhombus;whiteSpace=wrap;html=1;shadow=0;fontFamily=Helvetica;fontSize=12;align=center;strokeWidth=1;spacing=6;spacingTop=-4;" vertex="1" parent="1">
          <mxGeometry x="339" y="273" width="90" height="67" as="geometry" />
        </mxCell>
        <mxCell id="JJxZF2KsEsP3yiUepQ41-6" value="" style="edgeStyle=orthogonalEdgeStyle;rounded=0;orthogonalLoop=1;jettySize=auto;html=1;" edge="1" parent="1" source="JJxZF2KsEsP3yiUepQ41-7" target="JJxZF2KsEsP3yiUepQ41-9">
          <mxGeometry relative="1" as="geometry" />
        </mxCell>
        <mxCell id="JJxZF2KsEsP3yiUepQ41-7" value="开始" style="strokeWidth=2;html=1;shape=mxgraph.flowchart.terminator;whiteSpace=wrap;" vertex="1" parent="1">
          <mxGeometry x="354" y="40" width="60" height="40" as="geometry" />
        </mxCell>
        <mxCell id="JJxZF2KsEsP3yiUepQ41-8" value="" style="edgeStyle=orthogonalEdgeStyle;rounded=0;orthogonalLoop=1;jettySize=auto;html=1;" edge="1" parent="1" source="JJxZF2KsEsP3yiUepQ41-9" target="JJxZF2KsEsP3yiUepQ41-11">
          <mxGeometry relative="1" as="geometry" />
        </mxCell>
        <mxCell id="JJxZF2KsEsP3yiUepQ41-9" value="根据换行符把文本转成String[]数组" style="rounded=1;whiteSpace=wrap;html=1;fontSize=12;glass=0;strokeWidth=1;shadow=0;" vertex="1" parent="1">
          <mxGeometry x="314" y="121" width="140" height="40" as="geometry" />
        </mxCell>
        <mxCell id="JJxZF2KsEsP3yiUepQ41-10" value="" style="edgeStyle=orthogonalEdgeStyle;rounded=0;orthogonalLoop=1;jettySize=auto;html=1;" edge="1" parent="1" source="JJxZF2KsEsP3yiUepQ41-11" target="JJxZF2KsEsP3yiUepQ41-5">
          <mxGeometry relative="1" as="geometry" />
        </mxCell>
        <mxCell id="JJxZF2KsEsP3yiUepQ41-11" value="&lt;div data-docx-has-block-data=&quot;false&quot; data-lark-html-role=&quot;root&quot; data-page-id=&quot;Aed7douATo9B6cx0R7Rc3emsnXd&quot;&gt;&lt;div class=&quot;old-record-id-WZW5dhf2ooNl1qxLG0lcdsG0n3e&quot;&gt;以空格（“ ”）或半角逗号（,）或全角逗号（，）作为分隔，把每一行拆分字段&lt;/div&gt;&lt;/div&gt;&lt;span class=&quot;lark-record-clipboard&quot; data-lark-record-format=&quot;docx/text&quot; data-lark-record-data=&quot;{&amp;quot;rootId&amp;quot;:&amp;quot;Aed7douATo9B6cx0R7Rc3emsnXd&amp;quot;,&amp;quot;text&amp;quot;:{&amp;quot;initialAttributedTexts&amp;quot;:{&amp;quot;text&amp;quot;:{&amp;quot;0&amp;quot;:&amp;quot;以空格（“ ”）或半角逗号（,）或全角逗号（，）作为分隔，拆分元素&amp;quot;},&amp;quot;attribs&amp;quot;:{&amp;quot;0&amp;quot;:&amp;quot;*0+x&amp;quot;}},&amp;quot;apool&amp;quot;:{&amp;quot;numToAttrib&amp;quot;:{&amp;quot;0&amp;quot;:[&amp;quot;author&amp;quot;,&amp;quot;7403194829083705347&amp;quot;]},&amp;quot;nextNum&amp;quot;:1}},&amp;quot;type&amp;quot;:&amp;quot;text&amp;quot;,&amp;quot;referenceRecordMap&amp;quot;:{},&amp;quot;extra&amp;quot;:{&amp;quot;channel&amp;quot;:&amp;quot;saas&amp;quot;,&amp;quot;isEqualBlockSelection&amp;quot;:false,&amp;quot;pasteRandomId&amp;quot;:&amp;quot;011ff010-0866-426b-a94f-de44540d47f7&amp;quot;,&amp;quot;mention_page_title&amp;quot;:{},&amp;quot;external_mention_url&amp;quot;:{}},&amp;quot;isKeepQuoteContainer&amp;quot;:false,&amp;quot;isFromCode&amp;quot;:false,&amp;quot;selection&amp;quot;:[{&amp;quot;id&amp;quot;:1293,&amp;quot;type&amp;quot;:&amp;quot;text&amp;quot;,&amp;quot;selection&amp;quot;:{&amp;quot;start&amp;quot;:4,&amp;quot;end&amp;quot;:37},&amp;quot;recordId&amp;quot;:&amp;quot;WZW5dhf2ooNl1qxLG0lcdsG0n3e&amp;quot;}],&amp;quot;payloadMap&amp;quot;:{},&amp;quot;isCut&amp;quot;:false}&quot;&gt;&lt;/span&gt;" style="whiteSpace=wrap;html=1;rounded=1;glass=0;strokeWidth=1;shadow=0;" vertex="1" parent="1">
          <mxGeometry x="309" y="190" width="150" height="46" as="geometry" />
        </mxCell>
        <mxCell id="JJxZF2KsEsP3yiUepQ41-12" value="" style="edgeStyle=orthogonalEdgeStyle;rounded=0;orthogonalLoop=1;jettySize=auto;html=1;" edge="1" parent="1" source="JJxZF2KsEsP3yiUepQ41-13" target="JJxZF2KsEsP3yiUepQ41-15">
          <mxGeometry relative="1" as="geometry" />
        </mxCell>
        <mxCell id="JJxZF2KsEsP3yiUepQ41-13" value="取数组第一、二个字段分别作为债券简称和债券简代码" style="whiteSpace=wrap;html=1;shadow=0;strokeWidth=1;spacing=6;spacingTop=-4;" vertex="1" parent="1">
          <mxGeometry x="299.63" y="380" width="168.75" height="40" as="geometry" />
        </mxCell>
        <mxCell id="JJxZF2KsEsP3yiUepQ41-14" value="" style="edgeStyle=orthogonalEdgeStyle;rounded=0;orthogonalLoop=1;jettySize=auto;html=1;" edge="1" parent="1" source="JJxZF2KsEsP3yiUepQ41-15" target="JJxZF2KsEsP3yiUepQ41-27">
          <mxGeometry relative="1" as="geometry" />
        </mxCell>
        <mxCell id="JJxZF2KsEsP3yiUepQ41-15" value="从第3个字段开始循环处理，根据字段的值包含相应的关键字，把对应的值赋给相应的字段" style="whiteSpace=wrap;html=1;shadow=0;strokeWidth=1;spacing=6;spacingTop=-4;" vertex="1" parent="1">
          <mxGeometry x="285.5" y="450" width="197" height="50" as="geometry" />
        </mxCell>
        <mxCell id="JJxZF2KsEsP3yiUepQ41-16" value="" style="edgeStyle=orthogonalEdgeStyle;rounded=0;orthogonalLoop=1;jettySize=auto;html=1;" edge="1" parent="1" source="JJxZF2KsEsP3yiUepQ41-20" target="JJxZF2KsEsP3yiUepQ41-23">
          <mxGeometry relative="1" as="geometry" />
        </mxCell>
        <mxCell id="JJxZF2KsEsP3yiUepQ41-17" value="包含" style="edgeLabel;html=1;align=center;verticalAlign=middle;resizable=0;points=[];" vertex="1" connectable="0" parent="JJxZF2KsEsP3yiUepQ41-16">
          <mxGeometry x="-0.18" relative="1" as="geometry">
            <mxPoint as="offset" />
          </mxGeometry>
        </mxCell>
        <mxCell id="JJxZF2KsEsP3yiUepQ41-18" value="" style="edgeStyle=orthogonalEdgeStyle;rounded=0;orthogonalLoop=1;jettySize=auto;html=1;" edge="1" parent="1" source="JJxZF2KsEsP3yiUepQ41-20" target="JJxZF2KsEsP3yiUepQ41-25">
          <mxGeometry relative="1" as="geometry" />
        </mxCell>
        <mxCell id="JJxZF2KsEsP3yiUepQ41-19" value="不包含" style="edgeLabel;html=1;align=center;verticalAlign=middle;resizable=0;points=[];" vertex="1" connectable="0" parent="JJxZF2KsEsP3yiUepQ41-18">
          <mxGeometry x="0.2471" y="-3" relative="1" as="geometry">
            <mxPoint as="offset" />
          </mxGeometry>
        </mxCell>
        <mxCell id="JJxZF2KsEsP3yiUepQ41-20" value="Y债券代码包含 X或" style="rhombus;whiteSpace=wrap;html=1;shadow=0;strokeWidth=1;spacing=6;spacingTop=-4;" vertex="1" parent="1">
          <mxGeometry x="319" y="740" width="130" height="100" as="geometry" />
        </mxCell>
        <mxCell id="JJxZF2KsEsP3yiUepQ41-21" value="结束" style="strokeWidth=2;html=1;shape=mxgraph.flowchart.terminator;whiteSpace=wrap;" vertex="1" parent="1">
          <mxGeometry x="344" y="972" width="80" height="43.5" as="geometry" />
        </mxCell>
        <mxCell id="JJxZF2KsEsP3yiUepQ41-22" value="" style="edgeStyle=orthogonalEdgeStyle;rounded=0;orthogonalLoop=1;jettySize=auto;html=1;" edge="1" parent="1" source="JJxZF2KsEsP3yiUepQ41-23" target="JJxZF2KsEsP3yiUepQ41-21">
          <mxGeometry relative="1" as="geometry" />
        </mxCell>
        <mxCell id="JJxZF2KsEsP3yiUepQ41-23" value="走增发、续发流程" style="whiteSpace=wrap;html=1;shadow=0;strokeWidth=1;spacing=6;spacingTop=-4;" vertex="1" parent="1">
          <mxGeometry x="324" y="880" width="120" height="60" as="geometry" />
        </mxCell>
        <mxCell id="JJxZF2KsEsP3yiUepQ41-24" value="" style="edgeStyle=orthogonalEdgeStyle;rounded=0;orthogonalLoop=1;jettySize=auto;html=1;entryX=1;entryY=0.5;entryDx=0;entryDy=0;entryPerimeter=0;exitX=0.5;exitY=1;exitDx=0;exitDy=0;" edge="1" parent="1" source="JJxZF2KsEsP3yiUepQ41-25" target="JJxZF2KsEsP3yiUepQ41-21">
          <mxGeometry relative="1" as="geometry">
            <mxPoint x="584" y="900" as="targetPoint" />
          </mxGeometry>
        </mxCell>
        <mxCell id="JJxZF2KsEsP3yiUepQ41-25" value="走新发债流程" style="whiteSpace=wrap;html=1;shadow=0;strokeWidth=1;spacing=6;spacingTop=-4;" vertex="1" parent="1">
          <mxGeometry x="524" y="760" width="120" height="60" as="geometry" />
        </mxCell>
        <mxCell id="JJxZF2KsEsP3yiUepQ41-26" value="" style="edgeStyle=orthogonalEdgeStyle;rounded=0;orthogonalLoop=1;jettySize=auto;html=1;" edge="1" parent="1" source="JJxZF2KsEsP3yiUepQ41-27" target="JJxZF2KsEsP3yiUepQ41-29">
          <mxGeometry relative="1" as="geometry" />
        </mxCell>
        <mxCell id="JJxZF2KsEsP3yiUepQ41-27" value="&lt;div&gt;marginalRate：[边际利率]&lt;/div&gt;&lt;div&gt;weightedRate：[加权利率]&lt;/div&gt;&lt;div&gt;marginalMult：[边际倍数，边际]&lt;/div&gt;&lt;div&gt;compliantSubscriptionMult：[全场倍数，全场]&lt;/div&gt;" style="whiteSpace=wrap;html=1;shadow=0;strokeWidth=1;spacing=6;spacingTop=-4;" vertex="1" parent="1">
          <mxGeometry x="254" y="530" width="260" height="60" as="geometry" />
        </mxCell>
        <mxCell id="JJxZF2KsEsP3yiUepQ41-28" value="" style="edgeStyle=orthogonalEdgeStyle;rounded=0;orthogonalLoop=1;jettySize=auto;html=1;" edge="1" parent="1" source="JJxZF2KsEsP3yiUepQ41-29" target="JJxZF2KsEsP3yiUepQ41-20">
          <mxGeometry relative="1" as="geometry" />
        </mxCell>
        <mxCell id="JJxZF2KsEsP3yiUepQ41-29" value="&lt;div&gt;边际利率,加权利率 把有值的赋值&lt;/div&gt;&lt;div&gt;给边际利率，然后把加权利率清空,最后票面利率=边际利率&lt;/div&gt;" style="whiteSpace=wrap;html=1;shadow=0;strokeWidth=1;spacing=6;spacingTop=-4;" vertex="1" parent="1">
          <mxGeometry x="284" y="630" width="200" height="60" as="geometry" />
        </mxCell>
      </root>
    </mxGraphModel>
  </diagram>
</mxfile>
